# xmcd CD database file
# Copyright (C) 1993-1996 Ti Kan
#
# Track frame offsets:
#  150
#  14897
#  28020
#  41216
#  52827
#  63294
#  75245
#  87589
#  98833
#  110332
#  125872
#  137075
#  151094
#  163411
#  176312
#
# Disc length: 2521 seconds
#
# Revision: 2
# Processed by: cddbd v1.5.2PL0 Copyright (c) Steve Scherf et al.
# Submitted via: Advanced CD Ripper Pro 2.0
#
DISCID=c409d70f
DTITLE=Various Artist - Ladies Of Country and Western Vol 01
DYEAR=2003
DGENRE=Country
TTITLE0=I can't stop loving you
TTITLE1=Love me Tender
TTITLE2=I walk the line
TTITLE3=Send me the pillow you dream on
TTITLE4=Anna Marie
TTITLE5=Linda on my mind
TTITLE6=I'm so lonesome I could cry
TTITLE7=It's a sin
TTITLE8=A legend in my time
TTITLE9=The wild side of life
TTITLE10=Husbands and Wives
TTITLE11=Touching Home
TTITLE12=The Moment I lost you
TTITLE13=To all the girls I've loved before
TTITLE14=There goes my everything
EXTD=
EXTT0=
EXTT1=
EXTT2=
EXTT3=
EXTT4=
EXTT5=
EXTT6=
EXTT7=
EXTT8=
EXTT9=
EXTT10=
EXTT11=
EXTT12=
EXTT13=
EXTT14=
PLAYORDER=
